r. Strangelove eller: Hur jag slutade ängslas och lärde mig älska bomben
	
	
Originaltitel:	Dr. Strangelove or: How I Learned to Stop Worrying and Love the Bomb 	
Regissör:	Stanley Kubrick
Utgivningsår:	1964
Längd:	93 min

		
Om Dr. Strangelove eller: Hur jag slutade ängslas och lärde mig älska bomben:

Den paranoide amerikanske generalen Jack D Ripper är besatt av tanken på att ryssarna konspirerar för att förorena de "värdefulla amerikanska kroppsvätskorna". I ett anfall av vansinne skickar han därför ut det amerikanska flygvapnet för att bomba Sovjetunionen sönder och samman. Eller som han själv uttrycker det "Nuclear combat!". Stanley Kubricks klassiska politiska satir från det kalla krigets dagar.


Skådespelare:
	Peter Sellers, George C Scott, Sterling Hayden, Keenan Wynn, Slim Pickens, Peter Bull, James Earl Jones, Tracy Reed (II), Jack Creley
Manus:
	Stanley Kubrick, Terry Southern, Peter George (I)
Genre:
	Drama, Komedi
Produktionsland:
	Storbritannien


Format                           : AVI
Format/Info                      : Audio Video Interleave
File size                        : 868 MiB
Duration                         : 1h 30mn
Overall bit rate                 : 1 341 Kbps
Writing application              : Lavf52.31.0

Video
ID                               : 0
Format                           : MPEG-4 Visual
Format profile                   : Simple@L1
Format settings, BVOP            : No
Format settings, QPel            : No
Format settings, GMC             : No warppoints
Format settings, Matrix          : Default (H.263)
Codec ID                         : FMP4
Duration                         : 1h 30mn
Bit rate                         : 1 200 Kbps
Width                            : 720 pixels
Height                           : 576 pixels
Display aspect ratio             : 4:3
Frame rate                       : 25.000 fps
Standard                         : PAL
Color space                      : YUV
Chroma subsampling               : 4:2:0
Bit depth                        : 8 bits
Scan type                        : Progressive
Bits/(Pixel*Frame)               : 0.116
Stream size                      : 777 MiB (89%)
Writing library                  : Lavc52.20.0

Audio
ID                               : 1
Format                           : MPEG Audio
Format version                   : Version 1
Format profile                   : Layer 3
Mode                             : Joint stereo
Mode extension                   : MS Stereo
Codec ID                         : 55
Codec ID/Hint                    : MP3
Duration                         : 1h 30mn
Bit rate mode                    : Constant
Bit rate                         : 128 Kbps
Channel(s)                       : 2 channels
Sampling rate                    : 48.0 KHz
Stream size                      : 82.9 MiB (10%)
Alignment                        : Aligned on interleaves
Interleave, duration             : 24 ms (0.60 video frame)
Writing library                  : LAME3.97




